<svg width="837" height="243" viewBox="0 0 837 243" fill="none" xmlns="http://www.w3.org/2000/svg">
<path d="M199.293 45.4715C199.531 46.3262 199.842 48.8809 199.984 51.1488C200.477 58.9802 202.668 67.7226 207.311 80.3878C212.88 95.5769 218.535 107.341 224.014 115.136C225.99 117.948 227.648 119.73 232.668 124.439C239.859 131.185 240.03 131.469 239.997 136.645C239.959 142.721 238.433 146.039 234.766 148.018C232.505 149.238 213.938 163.977 208.363 168.978C202.982 173.804 201.247 174.841 198.728 174.736C195.63 174.607 194.688 173.905 188.245 166.918C184.956 163.35 179.024 157.412 175.065 153.722C167.865 147.012 167.865 147.012 165.393 146.766C160.868 146.316 154.007 148.19 144.928 152.356C133.619 157.546 121.59 166.854 108.44 180.592C102.383 186.919 101.484 188.001 101.058 189.477C100.792 190.402 100.098 192.759 99.5157 194.716C98.2666 198.915 98.0508 203.181 99.0373 204.17C99.9135 205.049 100.641 207.309 100.452 208.564C100.372 209.094 100.645 210.406 101.058 211.478C102.077 214.121 101.725 216.93 99.9423 220.37C98.6281 222.907 97.7916 223.906 92.8366 228.85C88.9828 232.696 86.1778 235.174 83.8975 236.747C74.9149 242.944 71.6023 243.519 66.3942 239.786C65.5956 239.214 64.3118 238.722 63.5413 238.695C62.3412 238.651 61.749 238.261 59.4103 235.971C57.9087 234.5 54.4954 231.696 51.8252 229.739C37.9369 219.559 22.4673 203.752 10.9736 187.995C9.65768 186.191 7.56723 183.853 6.26549 182.729C4.14065 180.894 3.88989 180.523 3.55319 178.716C3.34914 177.621 2.68245 176.043 2.07166 175.208C0.526738 173.098 -0.229797 170.552 0.061422 168.445C0.657685 164.13 6.08516 156.103 13.332 148.819C18.4642 143.66 20.8461 141.936 24.5381 140.706C27.0383 139.872 28.2542 139.89 30.6688 140.793C31.6616 141.165 33.2302 141.49 34.1546 141.516C35.079 141.541 36.6115 142.028 37.5601 142.596C39.8208 143.951 41.9097 143.841 48.5515 142.019C53.9429 140.54 53.9429 140.54 64.5122 129.916C75.9062 118.462 78.9743 114.804 84.5061 106.082C90.2057 97.0955 94.9314 84.8148 95.127 78.482C95.2418 74.7655 95.2418 74.7655 88.717 67.5863C82.6375 60.8969 74.8256 53.5266 68.9976 48.9816C67.6175 47.9053 67.3592 47.4305 66.9166 45.1566C66.6258 43.6624 66.661 41.5088 66.9995 40.083C67.5679 37.6883 67.7427 37.4365 72.2369 32.5386C75.4797 29.0044 78.9381 24.6196 83.6693 18.044C91.033 7.80974 95.2607 3.01179 98.4765 1.23944C100.802 -0.0424379 104.301 -0.361949 107.33 0.430828C109.567 1.01625 109.76 1.16639 116.686 7.69426C124.449 15.0109 127.598 17.386 135.531 21.9051C148.767 29.4454 169.688 37.4084 181.571 39.4291C183.338 39.7295 186.684 40.1664 189.007 40.4001C195.552 41.0583 198.467 42.4957 199.293 45.4715ZM192.172 45.069C191.115 44.866 188.653 44.5562 186.703 44.3806C171.602 43.0212 144.263 32.7546 128.185 22.4052C122.55 18.7782 116.926 14.2094 111.815 9.107C107.293 4.5915 107.247 4.55777 105.114 4.21602C100.83 3.52954 97.5589 6.1478 90.3655 16.0195C88.0527 19.1934 84.6182 23.8954 82.7334 26.4684C80.8485 29.0414 77.7673 32.6932 75.8863 34.5835C71.7288 38.7614 70.863 40.2185 70.9058 42.9654C70.9388 45.0835 70.9388 45.0835 75.8358 49.1902C79.2328 52.039 83.4279 56.1144 89.5308 62.4943C102.299 75.8423 110.217 85.5951 118.126 97.7186C122.32 104.145 122.61 104.497 128.991 110.856C135.231 117.075 135.97 117.689 144.315 123.58C162.405 136.35 169.459 142.269 184.984 157.704C191.689 164.37 197.572 170.027 198.059 170.275C199.357 170.938 200.822 170.081 205.186 166.105C207.339 164.144 211.685 160.496 214.844 157.999C218.003 155.502 222.773 151.717 225.444 149.589C228.115 147.462 231.276 145.182 232.468 144.524C235.102 143.071 235.558 142.094 235.805 137.393C236.015 133.401 235.384 132.165 231.647 129.253C221.467 121.321 213.641 108.761 205.202 86.8153C199.215 71.2464 195.96 58.913 195.789 51.1515C195.688 46.5305 195.16 45.6425 192.172 45.069ZM189.665 55.2055C191.15 69.6743 202.338 100.278 211.869 115.941C215.343 121.65 218.554 125.64 223.397 130.268C225.808 132.571 227.707 134.521 227.615 134.602C227.524 134.682 226.331 134.59 224.963 134.397C219.238 133.591 215.059 130.114 210.502 122.366C208.062 118.216 207.328 117.275 204.569 114.758C199.539 110.169 194.268 108.419 188.113 109.295C183.621 109.935 180.853 111.364 177.395 114.831C172.187 120.054 170.933 125.03 173.162 131.633C174.298 134.997 174.516 135.337 177.347 138.163C179.898 140.708 180.709 141.281 182.893 142.086C188.428 144.124 193.779 143.149 197.555 139.415C199.964 137.034 201.123 134.345 201.079 131.241C200.98 124.356 195.138 119.119 189.139 120.538C184.873 121.547 182.922 124.743 185.186 127.013C186.086 127.915 188.756 128.018 189.589 127.183C191.025 125.743 193.634 127.123 194.474 129.768C195.423 132.756 193.593 135.559 190.058 136.533C187.294 137.294 184.51 136.325 181.905 133.696C178.461 130.22 177.556 125.81 179.556 122.246C181.081 119.527 184.693 116.591 187.377 115.889C194.351 114.064 200.587 117.653 205.446 126.286C208.217 131.21 210.866 134.388 214.148 136.729C216.573 138.459 221.44 140.457 224.308 140.901C225.476 141.081 225.494 141.117 224.778 141.834C224.37 142.244 220.827 145.116 216.906 148.217C208.934 154.52 202.984 159.372 200.774 161.368C199.3 162.699 199.3 162.699 189.294 152.758C175.477 139.031 166.615 131.599 149.463 119.354C133.5 107.957 131.347 105.82 122.397 92.5C119.917 88.8078 116.128 83.5484 113.977 80.8124C111.827 78.0765 110.161 75.7652 110.275 75.6764C110.389 75.5875 111.774 75.6744 113.352 75.8686C117.028 76.3218 122.238 75.6005 125.459 74.1926C128.997 72.6457 133.366 68.2827 135.179 64.4872C136.809 61.073 137.942 56.0496 137.785 52.937C137.546 48.2245 134.125 41.4889 130.713 39.0167C125.655 35.3512 121.22 33.6417 116.507 33.5407C113.056 33.4668 108.911 34.3275 108.911 35.1182C108.911 35.4303 109.743 36.6652 110.759 37.8623C112.607 40.0388 112.607 40.0388 115.384 39.9254C117.044 39.8576 119.391 40.2397 121.215 40.8746C123.949 41.8261 124.562 42.2303 127.076 44.7391C129.373 47.0308 130.049 47.976 130.788 49.9306C133.407 56.8594 128.936 66.0579 121.689 68.6504C117.906 70.0039 112.376 69.7615 107.033 68.008C102.883 66.6462 102.883 66.6462 92.0958 55.855C86.163 49.9198 80.4807 44.4633 79.4685 43.7293C77.6281 42.3949 77.6281 42.3949 81.4368 38.1878C83.5315 35.8739 87.4647 30.8979 90.1771 27.1301C92.8896 23.3622 95.2237 20.2794 95.3641 20.2794C95.5045 20.2794 95.4949 21.0213 95.3428 21.9281C94.8985 24.5771 95.7702 30.8838 97.0918 34.5813C99.0979 40.1938 100.658 42.5296 105.94 47.8309C110.303 52.2092 110.812 52.6064 113.755 53.9252C117.477 55.5933 121.636 56.7344 124.811 56.9589C127.101 57.1208 127.101 57.1208 127.372 55.503C127.521 54.6132 127.415 53.2253 127.135 52.4188C126.634 50.973 126.574 50.9414 122.851 50.1571C118.124 49.1614 114.596 47.4437 111.147 44.4584C107.578 41.3684 104.649 36.9402 102.938 32.0468C101.259 27.2416 101.32 20.4534 103.09 15.2126C103.732 13.3105 104.422 11.5891 104.623 11.3873C104.886 11.1238 106.212 12.2466 109.331 15.3739C118.705 24.7735 129.432 31.65 145.972 38.8635C159.839 44.911 175.555 49.6426 185.019 50.6196C186.727 50.7958 188.378 51.002 188.689 51.0777C189.003 51.1541 189.437 52.9906 189.665 55.2055ZM171.834 55.263C168.742 53.3457 164.501 51.756 160.362 50.9628C156.772 50.2749 149.013 49.9731 144.719 50.3545C141.999 50.5961 141.999 50.5961 141.999 53.735C141.999 56.8738 141.999 56.8738 145.111 56.7152C154.764 56.2231 161.588 57.1332 166.594 59.5804C170.554 61.5163 175.736 66.7107 178.499 71.5137C186.988 86.2701 183.778 101.05 170.757 107.152C163.818 110.404 156.63 109.622 149.523 104.842C142.131 99.8695 138.803 91.0053 141.431 83.2879C142.253 80.8747 142.654 80.3029 145.608 77.341C149.336 73.6028 151.328 72.6021 155.459 72.392C162.541 72.0318 169.978 79.3446 170.09 86.7794C170.173 92.2734 166.469 96.2962 161.327 96.2962C157.684 96.2962 153.757 93.5171 153.005 90.4064C152.542 88.4907 152.806 87.4625 154.233 85.6304C155.786 83.6358 156.057 82.8002 155.53 81.6235C154.811 80.0179 154.27 79.6533 152.612 79.6533C151.456 79.6533 150.752 79.9853 149.724 81.0163C146.547 84.2016 145.553 88.639 147.059 92.9087C147.824 95.0783 148.432 96 150.461 98.0669C152.608 100.254 153.322 100.723 155.918 101.646C159.629 102.966 162.948 103.024 166.252 101.827C168.467 101.024 169.2 100.499 171.907 97.7805C174.583 95.093 175.108 94.3569 175.675 92.5079C176.694 89.1813 176.847 87.1167 176.298 84.1282C174.862 76.3205 168.997 69.4062 161.806 67.0458C152.274 63.9168 141.524 68.8699 136.555 78.681C129.788 92.0384 137.784 108.488 153.831 114.222C158.22 115.791 165.77 115.742 170.455 114.115C172.363 113.452 174.97 112.286 176.25 111.523C179.265 109.726 184.157 104.811 185.904 101.825C191.863 91.641 190.632 78.1219 182.65 66.1029C180.418 62.7413 174.777 57.0879 171.834 55.263ZM97.0637 45.1834C96.8134 45.4344 96.1219 46.7112 95.527 48.0207C94.1957 50.9518 94.5664 52.9265 96.5815 53.6377C98.5022 54.3156 100.165 53.5617 100.944 51.6598C101.636 49.9698 101.647 49.9937 97.8614 45.1638C97.673 44.9235 97.3141 44.9323 97.0637 45.1834ZM156.998 138.086C154.603 136.236 154.176 136.073 151.497 135.983C149.817 135.927 148.289 135.586 147.874 135.174C145.531 132.853 144.518 133.296 143.691 137.002C143.394 138.331 142.724 139.842 142.2 140.366C140.871 141.694 129.395 148.379 127.609 148.865C126.715 149.108 125.04 148.909 123.326 148.356C119.947 147.264 118.893 147.745 119.303 150.194C119.727 152.722 118.98 154.379 115.828 157.899C112.287 161.854 110.362 162.996 107.007 163.133C105.602 163.19 104.265 163.426 104.035 163.656C103.806 163.886 103.602 165.003 103.582 166.139C103.546 168.204 103.546 168.204 99.9421 171.694C95.665 175.836 93.8493 176.969 91.3484 177.054C89.5148 177.117 87.4519 175.83 87.6995 174.778C87.7568 174.535 87.6951 171.948 87.5627 169.029C87.3218 163.723 87.3218 163.723 84.6125 163.55C83.1224 163.454 81.7896 163.49 81.6509 163.63C81.5121 163.769 81.5175 168.238 81.6629 173.562C81.9273 183.241 81.9273 183.241 78.9893 182.329C74.2977 180.871 65.6699 181.099 55.4841 182.948C45.5677 184.749 39.4916 185.016 36.2567 183.793C33.357 182.697 30.2236 179.666 29.3745 177.135C27.6742 172.067 32.3236 166.168 37.9234 166.289C39.3896 166.32 40.1106 166.649 41.6585 167.994C43.2522 169.379 43.6072 169.92 43.7571 171.196C43.9656 172.971 42.4901 174.827 40.8701 174.827C39.7019 174.827 39.7559 174.874 38.7088 172.926C36.6033 169.008 31.7006 171.415 33.3887 175.537C34.1753 177.458 36.7986 180.092 38.4438 180.612C43.7914 182.304 49.7231 177.747 49.8441 171.854C49.9358 167.382 46.1544 162.506 41.3065 160.847C36.5398 159.216 31.3404 160.713 27.1995 164.909C19.3328 172.88 23.1397 185.581 34.5966 189.588C38.029 190.789 45.7854 190.768 52.6988 189.541C66.5851 187.075 70.6192 186.754 75.2804 187.743C76.947 188.097 79.2819 188.894 80.4691 189.513C82.6063 190.629 82.6432 190.673 84.2037 193.947C88.3352 202.614 87.6566 211.382 82.3021 218.518C76.1489 226.719 63.9285 228.515 54.7955 222.56C51.5098 220.417 47.4792 216.387 46.1594 213.924C45.5902 212.862 44.9407 211.087 44.7159 209.98C44.4912 208.873 44.1654 207.824 43.9921 207.651C43.8187 207.477 42.5444 207.182 41.1602 206.996C37.9318 206.561 35.8281 204.684 35.3847 201.842C34.8071 198.14 34.6598 197.933 32.2611 197.443C27.7301 196.519 22.5634 192.201 19.2212 186.547C16.9218 182.657 16.0241 179.08 16.1925 174.482C16.5148 165.68 21.5523 159.261 30.517 156.228C35.606 154.507 40.9141 154.315 45.1423 155.7C47.9278 156.612 48.5891 157.021 50.6509 159.102C52.5829 161.051 53.1576 161.941 53.9264 164.172C54.9198 167.056 55.3297 173.105 54.8274 177.471C54.522 180.126 54.522 180.126 57.5363 179.613C61.1763 178.992 61.1121 179.126 61.107 172.156C61.1046 168.669 60.7635 165.975 60.0241 163.598C58.9449 160.129 58.9449 160.129 66.08 160.335C79.1738 160.712 90.8575 160.749 95.1915 160.426C101.207 159.979 101.991 159.027 102.259 151.847C102.382 148.538 102.382 148.538 99.47 148.523C96.5575 148.507 96.5575 148.507 96.3111 151.412C96.0647 154.317 96.0647 154.317 92.835 154.571C91.0587 154.711 84.4607 154.709 78.1728 154.567C65.5493 154.282 65.0293 154.132 64.733 150.682C64.5294 148.311 66.1065 145.567 69.9929 141.529C73.013 138.392 73.1757 138.282 75.1567 138.053C78.8626 137.626 78.7182 137.738 78.5653 135.406C78.3425 132.008 78.9719 130.737 82.7605 126.938C86.9362 122.751 88.7865 121.704 90.996 122.275C93.3703 122.889 94.3364 121.571 93.426 118.96C92.1545 115.312 92.4483 113.467 94.8832 109.809C95.7055 108.574 97.4485 105.645 98.7566 103.301C101.135 99.0378 101.135 99.0378 103.144 98.3369C104.249 97.9514 105.775 97.4966 106.534 97.3262C108.327 96.924 108.32 96.2403 106.499 93.7291C105.299 92.0738 105.11 91.4163 105.258 89.4081C105.429 87.0914 105.379 86.9708 102.952 83.9095C101.587 82.188 100.306 80.6124 100.105 80.408C99.9045 80.2035 99.2963 81.982 98.7541 84.3599C97.0842 91.6834 92.3488 102.387 87.5972 109.579C82.6429 117.078 79.1641 121.27 69.8789 130.93C58.8144 142.44 55.849 144.897 52.0318 145.716C50.6292 146.017 48.1071 146.658 46.4272 147.141C42.329 148.319 38.6121 148.295 36.4347 147.076C35.48 146.542 34.3691 146.087 33.9661 146.065C31.9371 145.954 19.5864 157.014 15.2023 162.867C11.5095 167.797 7.94107 174.618 7.74147 177.128C7.67535 177.96 7.96619 178.418 9.09246 179.258C9.88184 179.847 10.7598 180.517 11.0435 180.747C11.3272 180.978 13.2215 183.432 15.253 186.201C22.4102 195.958 24.7864 198.689 35.1198 209.038C45.6556 219.59 50.2951 223.564 58.1161 228.737C60.2324 230.137 61.5857 231.268 61.7433 231.769C62.2685 233.438 63.7906 234.431 65.5867 234.276C67.6063 234.102 73.4767 231.177 78.272 227.956C82.9442 224.818 90.5474 217.209 93.3714 212.846C95.8735 208.98 96.1838 207.796 95.1238 206.163C93.3311 203.401 93.3554 200.042 95.2146 193.655C95.6628 192.115 96.1949 190.038 96.3971 189.039C96.8944 186.583 100.125 182.569 107.826 174.841C120.761 161.86 131.814 153.535 143.017 148.333C148.167 145.942 154.912 143.54 158.357 142.869C161.825 142.194 161.772 142.234 160.635 141.115C160.063 140.552 158.427 139.189 156.998 138.086ZM132.515 126.281C130.709 125.552 125.059 124.961 115.111 124.461C105.328 123.97 99.4431 124.11 98.1872 124.864C96.8017 125.695 96.3905 127.705 96.4207 133.498C96.4452 138.192 96.4452 138.192 99.3853 138.192C102.325 138.192 102.325 138.192 102.343 134.147C102.361 130.103 102.361 130.103 106.42 130.073C111.585 130.034 127.666 131.214 129.878 131.795C131.558 132.236 131.558 132.236 131.782 133.766C132.151 136.275 130.868 137.36 127.281 137.573C123.854 137.777 123.014 138.361 123.014 140.541C123.014 142.911 123.99 143.481 127.937 143.42C131.443 143.366 133.815 142.535 135.616 140.728C137.576 138.764 138.459 133.978 137.384 131.153C136.702 129.359 134.376 127.031 132.515 126.281ZM109.994 104.323C106.974 103.533 103.993 104.215 101.686 106.226C100.096 107.611 99.6706 108.283 98.9889 110.481C97.9702 113.766 98.3708 117.623 99.8233 118.515C102.27 120.017 104.478 118.151 104.544 114.526C104.608 111.022 105.147 110.219 107.436 110.219C108.46 110.219 109.511 110.432 109.771 110.693C110.031 110.953 110.436 113.115 110.672 115.497C110.908 117.879 111.17 120.511 111.256 121.347C111.411 122.866 111.411 122.866 114.296 122.948C115.883 122.993 117.224 122.851 117.275 122.632C117.466 121.82 116.296 111.267 115.852 109.794C115.147 107.459 112.488 104.976 109.994 104.323ZM114.688 133.283C111.877 133.143 111.877 133.143 111.954 136.421C112.031 139.698 112.031 139.698 99.0603 139.767C91.0688 139.809 85.4739 140.089 84.4856 140.496C82.249 141.417 81.6675 143.034 81.5497 148.663C81.4558 153.147 81.4558 153.147 84.396 153.16C87.3362 153.172 87.3362 153.172 87.4288 149.84C87.4798 148.007 87.6956 146.333 87.9084 146.12C88.1213 145.906 94.3465 145.703 101.742 145.669C114.874 145.607 115.219 145.576 116.469 144.322C117.63 143.159 117.76 142.614 117.866 138.473C117.93 135.962 117.874 133.798 117.741 133.665C117.608 133.532 116.234 133.36 114.688 133.283ZM70.89 167.537C68.6995 167.606 67.0842 169.331 67.2418 171.433C67.5089 174.997 71.4422 176.363 74.0127 173.785C76.1275 171.665 74.0156 167.439 70.89 167.537ZM25.4769 145.08C21.2302 146.596 14.3338 153.126 9.01902 160.665C4.50291 167.071 3.4562 170.126 5.18413 171.859C5.9435 172.62 5.9435 172.62 7.80231 168.99C10.843 163.05 14.8542 157.979 21.0737 152.212C24.0088 149.491 27.0993 146.739 27.9415 146.098C29.4354 144.959 29.4464 144.925 28.393 144.678C27.7992 144.538 26.4869 144.719 25.4769 145.08ZM95.853 214.553C89.8074 223.201 81.6965 230.272 72.6259 234.801C71.026 235.6 69.7161 236.375 69.7151 236.524C69.7096 237.342 72.235 237.829 73.9208 237.335C79.5404 235.687 92.9196 224.168 95.9514 218.367C97.8783 214.68 97.8031 211.764 95.853 214.553ZM75.3276 193.832C71.3586 191.675 67.2292 192.253 64.0735 195.408C60.5934 198.887 60.5313 203.636 63.9215 207.035C66.8477 209.97 69.5754 210.205 71.0978 207.656C71.981 206.177 71.2356 204.615 69.1421 203.557C67.5183 202.737 67.4401 202.629 67.5703 201.388C67.9225 198.029 71.3127 197.591 74.2358 200.527C76.9893 203.292 76.653 207.341 73.3989 210.604C71.2581 212.75 69.3356 213.577 66.9598 213.372C63.2504 213.051 59.8988 210.035 58.5076 205.766C57.7367 203.4 57.5957 197.92 58.2041 193.968C58.3987 192.704 58.5199 191.632 58.4733 191.585C58.4268 191.539 57.076 191.766 55.4715 192.091C51.9028 192.814 51.8229 192.983 51.7859 199.889C51.746 207.352 54.0331 212.691 58.8152 216.299C61.7047 218.478 63.6864 219.197 67.124 219.312C71.4329 219.456 74.0937 218.313 77.5921 214.813C79.7885 212.616 80.562 211.557 81.1593 209.932C83.5382 203.456 81.2102 197.029 75.3276 193.832Z" fill="#00C0E8"/>
<path d="M419.42 80.6544L403.788 85.8653L406.914 81.5229L391.803 176.708L390.24 173.06L404.135 177.577L402.051 190.256H355.327L357.411 177.577L374.086 172.713L369.222 177.924L382.423 94.8975L386.418 95.0712L346.295 158.47L331.009 159.339L311.034 94.8975L315.724 94.7238L302.523 176.708L301.134 173.06L314.856 177.577L312.771 190.256H268.826L270.737 177.577L287.064 172.713L282.722 176.708L297.833 82.044L300.613 86.039L286.022 81.5229L288.107 68.8431L328.23 67.9747L346.642 133.979H342.994L381.902 68.8431L421.505 67.9747L419.42 80.6544ZM390.531 231.075L394.353 214.226C395.511 214.342 396.611 214.458 397.653 214.574C398.695 214.69 399.737 214.747 400.779 214.747C406.569 214.747 410.854 213.184 413.633 210.058C416.412 207.047 418.265 202.531 419.191 196.509L432.392 111.746L434.303 114.699L420.754 110.704L422.665 98.024L458.794 96.8081L444.03 190.777C442.293 201.199 439.456 209.421 435.518 215.442C431.581 221.579 426.776 225.922 421.102 228.469C415.428 231.017 409.232 232.291 402.516 232.291C400.2 232.291 398.174 232.175 396.437 231.943C394.584 231.712 392.616 231.422 390.531 231.075ZM448.546 83.4336C444.608 83.4336 441.482 82.2756 439.166 79.9597C436.966 77.6437 435.866 74.5172 435.866 70.5801C435.866 65.8324 437.313 62.0111 440.208 59.1162C443.219 56.1055 446.982 54.6001 451.498 54.6001C455.436 54.6001 458.504 55.7581 460.704 58.074C463.02 60.2742 464.178 63.4007 464.178 67.4536C464.178 72.0855 462.731 75.9068 459.836 78.9175C456.941 81.9282 453.177 83.4336 448.546 83.4336ZM516.281 95.4186C523.461 95.4186 529.772 96.7502 535.214 99.4136C540.657 101.961 544.883 106.072 547.894 111.746C551.021 117.42 552.584 124.831 552.584 133.979C552.584 141.274 551.542 148.396 549.457 155.344C547.489 162.291 544.362 168.544 540.078 174.103C535.793 179.661 530.409 184.119 523.924 187.477C517.555 190.72 509.97 192.341 501.17 192.341C493.99 192.341 487.68 191.067 482.237 188.519C476.795 185.856 472.568 181.687 469.557 176.013C466.547 170.223 465.041 162.755 465.041 153.607C465.041 146.311 466.026 139.248 467.994 132.416C470.078 125.468 473.205 119.215 477.374 113.657C481.658 108.098 486.985 103.698 493.354 100.456C499.838 97.0976 507.481 95.4186 516.281 95.4186ZM513.85 112.962C509.334 112.962 505.512 114.409 502.386 117.304C499.259 120.083 496.712 123.673 494.743 128.073C492.89 132.358 491.501 136.874 490.574 141.622C489.764 146.369 489.359 150.654 489.359 154.475C489.359 160.728 490.459 165.707 492.659 169.413C494.975 173.003 498.622 174.797 503.602 174.797C508.118 174.797 511.939 173.408 515.066 170.629C518.192 167.734 520.74 164.086 522.708 159.686C524.677 155.286 526.066 150.712 526.877 145.964C527.803 141.216 528.266 136.932 528.266 133.11C528.266 126.857 527.108 121.936 524.793 118.346C522.592 114.757 518.945 112.962 513.85 112.962ZM558.411 191.125L579.081 61.0268L587.592 75.9647L565.532 69.5379L567.443 56.3371L603.919 54.9475L583.249 185.045L574.391 169.76L597.145 177.055L595.061 190.083L558.411 191.125ZM662.8 191.125L672.18 132.937C672.875 129.347 673.048 126.163 672.701 123.384C672.354 120.604 671.543 118.404 670.269 116.783C668.996 115.162 667.027 114.351 664.364 114.351C661.932 114.351 659.384 115.104 656.721 116.609C654.174 118.115 651.684 120.373 649.252 123.384C646.936 126.278 644.852 130.042 642.999 134.674C641.146 139.19 639.757 144.574 638.83 150.827L632.577 190.256H608.607L622.503 102.887L631.014 117.999L608.955 110.704L611.039 98.024L645.952 96.8081L639.525 126.336L631.883 139.537C634.314 129.231 637.904 120.836 642.652 114.351C647.399 107.867 652.61 103.119 658.284 100.108C664.074 96.9818 669.575 95.4186 674.785 95.4186C680.228 95.4186 684.802 96.7502 688.507 99.4136C692.213 101.961 694.818 105.667 696.324 110.53C697.829 115.278 698.003 120.952 696.845 127.552L688.855 177.403L678.607 169.76L701.361 177.055L699.276 190.083L662.8 191.125ZM712.163 191.125L726.232 102.887L734.917 117.999L712.684 110.704L714.768 98.024L751.07 96.8081L737.001 185.567L728.664 170.108L750.723 177.403L748.639 190.083L712.163 191.125ZM741.691 83.4336C737.754 83.4336 734.627 82.2756 732.311 79.9597C730.111 77.6437 729.011 74.5172 729.011 70.5801C729.011 65.8324 730.458 62.0111 733.353 59.1162C736.364 56.1055 740.128 54.6001 744.644 54.6001C748.581 54.6001 751.649 55.7581 753.849 58.074C756.165 60.2742 757.323 63.4007 757.323 67.4536C757.323 72.0855 755.876 75.9068 752.981 78.9175C750.086 81.9282 746.323 83.4336 741.691 83.4336ZM762.294 190.256L776.19 102.887L784.701 117.999L762.641 110.704L764.726 98.024L799.639 96.8081L793.212 126.336L785.743 139.537C787.827 129.81 791.128 121.704 795.644 115.22C800.276 108.619 805.486 103.698 811.276 100.456C817.182 97.0976 822.914 95.4186 828.472 95.4186C831.599 95.4186 834.32 95.8818 836.636 96.8081L831.078 127.9H816.661L816.487 111.92L819.266 114.178C816.256 113.83 813.303 114.525 810.408 116.262C807.629 117.883 805.023 120.373 802.591 123.731C800.276 126.973 798.191 130.91 796.338 135.542C794.601 140.058 793.328 145.153 792.517 150.827L786.264 190.256H762.294Z" fill="#00C0E8"/>
</svg>
